{
  "source": "C:\\Users\\Peter\\Desktop\\stuff\\MIUN\\quantitative_research\\video_compression\\videos\\BVI-HD\\BVI-HD_CDVL_videos\\ORIG\\Music_1920x1080_30fps.mp4",
  "output": "C:\\Users\\Peter\\Desktop\\stuff\\MIUN\\quantitative_research\\video_compression\\compressed_videos\\BVI-HD\\hevc\\1.5\\Music_1920x1080_30fps_hevc.mp4",
  "codec": "hevc",
  "ok": "Input #0, mov,mp4,m4a,3gp,3g2,mj2, from 'C:\\Users\\Peter\\Desktop\\stuff\\MIUN\\quantitative_research\\video_compression\\videos\\BVI-HD\\BVI-HD_CDVL_videos\\ORIG\\Music_1920x1080_30fps.mp4':\n  Metadata:\n    major_brand     : isom\n    minor_version   : 512\n    compatible_brands: isomiso2avc1mp41\n    encoder         : Lavf54.28.101\n  Duration: 00:00:05.00, start: 0.000000, bitrate: 192710 kb/s\n  Stream #0:0[0x1](und): Video: h264 (High 4:4:4 Predictive) (avc1 / 0x31637661), yuv420p(progressive), 1920x1080, 192707 kb/s, 30 fps, 30 tbr, 30 tbn (default)\n    Metadata:\n      handler_name    : VideoHandler\n      vendor_id       : [0][0][0][0]\n[out#0/mp4 @ 000001b196833e00] Codec AVOption b:a (set bitrate (in bits/s)) has not been used for any stream. The most likely reason is either wrong type (e.g. a video option with no video streams) or that it is a private option of some decoder which was not actually used for any stream.\nStream mapping:\n  Stream #0:0 -> #0:0 (h264 (native) -> hevc (libx265))\nPress [q] to stop, [?] for help\n[libx265 @ 000001b1963cd900] Unknown option: \"aq-mode.\nx265 [info]: HEVC encoder version 4.1+190-8f11c33ac\nx265 [info]: build info [Windows][GCC 15.1.0][64 bit] 10bit\nx265 [info]: using cpu capabilities: MMX2 SSE2Fast LZCNT SSSE3 SSE4.2 AVX FMA3 BMI2 AVX2\nx265 [info]: Main 10 profile, Level-4 (Main tier)\nx265 [info]: Thread pool created using 12 threads\nx265 [info]: Slices                              : 1\nx265 [info]: frame threads / pool features       : 3 / wpp(17 rows)\nx265 [info]: Coding QT: max CU size, min CU size : 64 / 8\nx265 [info]: Residual QT: max TU size, max depth : 32 / 1 inter / 1 intra\nx265 [info]: ME / range / subpel / merge         : star / 57 / 3 / 3\nx265 [info]: Keyframe min / max / scenecut / bias  : 25 / 250 / 40 / 5.00 \nx265 [info]: Lookahead / bframes / badapt        : 25 / 4 / 2\nx265 [info]: b-pyramid / weightp / weightb       : 1 / 1 / 0\nx265 [info]: References / ref-limit  cu / depth  : 4 / on / on\nx265 [info]: AQ: mode / str / qg-size / cu-tree  : 2 / 1.0 / 32 / 1\nx265 [info]: Rate Control / qCompress            : ABR-1500 kbps / 0.60\nx265 [info]: VBV/HRD buffer / max-rate / init    : 1500 / 1500 / 0.750\nx265 [info]: tools: rect limit-modes rd=4 psy-rd=2.00 rdoq=2 psy-rdoq=1.00\nx265 [info]: tools: rskip mode=1 signhide tmvp strong-intra-smoothing lslices=4\nx265 [info]: tools: deblock sao dhdr10-info\nOutput #0, mp4, to 'C:\\Users\\Peter\\Desktop\\stuff\\MIUN\\quantitative_research\\video_compression\\compressed_videos\\BVI-HD\\hevc\\1.5\\Music_1920x1080_30fps_hevc.mp4':\n  Metadata:\n    major_brand     : isom\n    minor_version   : 512\n    compatible_brands: isomiso2avc1mp41\n    encoder         : Lavf62.3.100\n  Stream #0:0(und): Video: hevc (hev1 / 0x31766568), yuv420p10le(tv, progressive), 1920x1080, q=2-31, 1500 kb/s, 30 fps, 15360 tbn (default)\n    Metadata:\n      encoder         : Lavc62.11.100 libx265\n      handler_name    : VideoHandler\n      vendor_id       : [0][0][0][0]\n    Side data:\n      cpb: bitrate max/min/avg: 1500000/0/1500000 buffer size: 1500000 vbv_delay: N/A\nframe=    0 fps=0.0 q=0.0 size=       0KiB time=N/A bitrate=N/A speed=N/A elapsed=0:00:01.05    \nframe=    0 fps=0.0 q=0.0 size=       0KiB time=N/A bitrate=N/A speed=N/A elapsed=0:00:01.59    \nframe=    0 fps=0.0 q=0.0 size=       0KiB time=N/A bitrate=N/A speed=N/A elapsed=0:00:02.10    \nframe=    0 fps=0.0 q=0.0 size=       0KiB time=N/A bitrate=N/A speed=N/A elapsed=0:00:02.62    \nframe=    0 fps=0.0 q=0.0 size=       0KiB time=N/A bitrate=N/A speed=N/A elapsed=0:00:03.14    \nframe=    0 fps=0.0 q=0.0 size=       0KiB time=N/A bitrate=N/A speed=N/A elapsed=0:00:03.68    \nframe=    0 fps=0.0 q=0.0 size=       0KiB time=N/A bitrate=N/A speed=N/A elapsed=0:00:04.20    \nframe=    0 fps=0.0 q=0.0 size=       0KiB time=N/A bitrate=N/A speed=N/A elapsed=0:00:04.72    \nframe=    0 fps=0.0 q=0.0 size=       0KiB time=N/A bitrate=N/A speed=N/A elapsed=0:00:05.26    \nframe=    0 fps=0.0 q=0.0 size=       0KiB time=N/A bitrate=N/A speed=N/A elapsed=0:00:05.79    \nframe=    1 fps=0.2 q=41.3 size=       0KiB time=-00:00:00.03 bitrate=N/A speed=N/A elapsed=0:00:06.32    \nframe=    1 fps=0.1 q=41.3 size=       0KiB time=-00:00:00.03 bitrate=N/A speed=N/A elapsed=0:00:06.84    \nframe=    1 fps=0.1 q=41.3 size=       0KiB time=-00:00:00.03 bitrate=N/A speed=N/A elapsed=0:00:07.36    \nframe=    1 fps=0.1 q=41.3 size=       0KiB time=-00:00:00.03 bitrate=N/A speed=N/A elapsed=0:00:07.88    \nframe=    1 fps=0.1 q=41.3 size=       0KiB time=-00:00:00.03 bitrate=N/A speed=N/A elapsed=0:00:08.40    \nframe=    1 fps=0.1 q=41.3 size=       0KiB time=-00:00:00.03 bitrate=N/A speed=N/A elapsed=0:00:08.92    \nframe=    2 fps=0.2 q=42.4 size=       0KiB time=00:00:00.00 bitrate=N/A speed=   0x elapsed=0:00:09.44    \nframe=    2 fps=0.2 q=42.4 size=       0KiB time=00:00:00.00 bitrate=N/A speed=   0x elapsed=0:00:09.96    \nframe=    2 fps=0.2 q=42.4 size=       0KiB time=00:00:00.00 bitrate=N/A speed=   0x elapsed=0:00:10.47    \nframe=    3 fps=0.3 q=44.1 size=       0KiB time=00:00:00.03 bitrate=  10.6kbits/s speed=0.00303x elapsed=0:00:11.00    \nframe=    3 fps=0.3 q=44.1 size=       0KiB time=00:00:00.03 bitrate=  10.6kbits/s speed=0.00289x elapsed=0:00:11.53    \nframe=    3 fps=0.2 q=44.1 size=       0KiB time=00:00:00.03 bitrate=  10.6kbits/s speed=0.00277x elapsed=0:00:12.03    \nframe=    3 fps=0.2 q=44.1 size=       0KiB time=00:00:00.03 bitrate=  10.6kbits/s speed=0.00265x elapsed=0:00:12.55    \nframe=    4 fps=0.3 q=38.9 size=       0KiB time=00:00:00.06 bitrate=   5.3kbits/s speed=0.00509x elapsed=0:00:13.09    \nframe=    4 fps=0.3 q=38.9 size=       0KiB time=00:00:00.06 bitrate=   5.3kbits/s speed=0.0049x elapsed=0:00:13.61    \nframe=    4 fps=0.3 q=38.9 size=       0KiB time=00:00:00.06 bitrate=   5.3kbits/s speed=0.00472x elapsed=0:00:14.12    \nframe=    4 fps=0.3 q=38.9 size=       0KiB time=00:00:00.06 bitrate=   5.3kbits/s speed=0.00455x elapsed=0:00:14.64    \nframe=    4 fps=0.3 q=38.9 size=       0KiB time=00:00:00.06 bitrate=   5.3kbits/s speed=0.0044x elapsed=0:00:15.15    \nframe=    5 fps=0.3 q=41.8 size=       0KiB time=00:00:00.10 bitrate=   3.5kbits/s speed=0.00638x elapsed=0:00:15.66    \nframe=    5 fps=0.3 q=41.8 size=       0KiB time=00:00:00.10 bitrate=   3.5kbits/s speed=0.00618x elapsed=0:00:16.18    \nframe=    5 fps=0.3 q=41.8 size=       0KiB time=00:00:00.10 bitrate=   3.5kbits/s speed=0.00598x elapsed=0:00:16.71    \nframe=    5 fps=0.3 q=41.8 size=       0KiB time=00:00:00.10 bitrate=   3.5kbits/s speed=0.0058x elapsed=0:00:17.23    \nframe=    5 fps=0.3 q=41.8 size=       0KiB time=00:00:00.10 bitrate=   3.5kbits/s speed=0.00563x elapsed=0:00:17.74    \nframe=    5 fps=0.3 q=41.8 size=       0KiB time=00:00:00.10 bitrate=   3.5kbits/s speed=0.00547x elapsed=0:00:18.27    \nframe=    5 fps=0.3 q=41.8 size=       0KiB time=00:00:00.10 bitrate=   3.5kbits/s speed=0.00532x elapsed=0:00:18.80    \nframe=    5 fps=0.3 q=41.8 size=       0KiB time=00:00:00.10 bitrate=   3.5kbits/s speed=0.00517x elapsed=0:00:19.32    \nframe=    5 fps=0.3 q=41.8 size=       0KiB time=00:00:00.10 bitrate=   3.5kbits/s speed=0.00504x elapsed=0:00:19.85    \nframe=    5 fps=0.2 q=41.8 size=       0KiB time=00:00:00.10 bitrate=   3.5kbits/s speed=0.0049x elapsed=0:00:20.39    \nframe=    6 fps=0.3 q=36.9 size=       0KiB time=00:00:00.13 bitrate=   2.6kbits/s speed=0.00637x elapsed=0:00:20.91    \nframe=    6 fps=0.3 q=36.9 size=       0KiB time=00:00:00.13 bitrate=   2.6kbits/s speed=0.00622x elapsed=0:00:21.44    \nframe=    6 fps=0.3 q=36.9 size=       0KiB time=00:00:00.13 bitrate=   2.6kbits/s speed=0.00607x elapsed=0:00:21.97    \nframe=    6 fps=0.3 q=36.9 size=       0KiB time=00:00:00.13 bitrate=   2.6kbits/s speed=0.00593x elapsed=0:00:22.50    \nframe=    7 fps=0.3 q=39.2 size=       0KiB time=00:00:00.16 bitrate=   2.1kbits/s speed=0.00724x elapsed=0:00:23.01    \nframe=    7 fps=0.3 q=39.2 size=       0KiB time=00:00:00.16 bitrate=   2.1kbits/s speed=0.00708x elapsed=0:00:23.53    \nframe=    7 fps=0.3 q=39.2 size=       0KiB time=00:00:00.16 bitrate=   2.1kbits/s speed=0.00692x elapsed=0:00:24.07    \nframe=    7 fps=0.3 q=39.2 size=       0KiB time=00:00:00.16 bitrate=   2.1kbits/s speed=0.00677x elapsed=0:00:24.60    \nframe=    8 fps=0.3 q=36.8 size=       0KiB time=00:00:00.20 bitrate=   1.8kbits/s speed=0.00796x elapsed=0:00:25.13    \nframe=    8 fps=0.3 q=36.8 size=       0KiB time=00:00:00.20 bitrate=   1.8kbits/s speed=0.00779x elapsed=0:00:25.67    \nframe=    8 fps=0.3 q=36.8 size=       0KiB time=00:00:00.20 bitrate=   1.8kbits/s speed=0.00763x elapsed=0:00:26.22    \nframe=    8 fps=0.3 q=36.8 size=       0KiB time=00:00:00.20 bitrate=   1.8kbits/s speed=0.00746x elapsed=0:00:26.79    \nframe=    8 fps=0.3 q=36.8 size=       0KiB time=00:00:00.20 bitrate=   1.8kbits/s speed=0.0073x elapsed=0:00:27.38    \nframe=    8 fps=0.3 q=36.8 size=       0KiB time=00:00:00.20 bitrate=   1.8kbits/s speed=0.00716x elapsed=0:00:27.94    \nframe=    8 fps=0.3 q=36.8 size=       0KiB time=00:00:00.20 bitrate=   1.8kbits/s speed=0.00703x elapsed=0:00:28.45    \nframe=    8 fps=0.3 q=36.8 size=       0KiB time=00:00:00.20 bitrate=   1.8kbits/s speed=0.00689x elapsed=0:00:29.01    \nframe=    8 fps=0.3 q=36.8 size=       0KiB time=00:00:00.20 bitrate=   1.8kbits/s speed=0.00677x elapsed=0:00:29.54    \nframe=    8 fps=0.3 q=36.8 size=       0KiB time=00:00:00.20 bitrate=   1.8kbits/s speed=0.00664x elapsed=0:00:30.12    \nframe=    8 fps=0.3 q=36.8 size=       0KiB time=00:00:00.20 bitrate=   1.8kbits/s speed=0.00651x elapsed=0:00:30.70    \nframe=    8 fps=0.3 q=36.8 size=       0KiB time=00:00:00.20 bitrate=   1.8kbits/s speed=0.00639x elapsed=0:00:31.27    \nframe=    9 fps=0.3 q=38.0 size=       0KiB time=00:00:00.23 bitrate=   1.5kbits/s speed=0.00733x elapsed=0:00:31.82    \nframe=    9 fps=0.3 q=38.0 size=       0KiB time=00:00:00.23 bitrate=   1.5kbits/s speed=0.00721x elapsed=0:00:32.37    \nframe=    9 fps=0.3 q=38.0 size=       0KiB time=00:00:00.23 bitrate=   1.5kbits/s speed=0.00709x elapsed=0:00:32.88    \nframe=    9 fps=0.3 q=38.0 size=       0KiB time=00:00:00.23 bitrate=   1.5kbits/s speed=0.00699x elapsed=0:00:33.39    \nframe=    9 fps=0.3 q=38.0 size=       0KiB time=00:00:00.23 bitrate=   1.5kbits/s speed=0.00688x elapsed=0:00:33.93    \nframe=   10 fps=0.3 q=38.7 size=       0KiB time=00:00:00.26 bitrate=   1.3kbits/s speed=0.00774x elapsed=0:00:34.44    \nframe=   11 fps=0.3 q=36.5 size=       0KiB time=00:00:00.30 bitrate=   1.2kbits/s speed=0.00858x elapsed=0:00:34.96    \nframe=   11 fps=0.3 q=36.5 size=       0KiB time=00:00:00.30 bitrate=   1.2kbits/s speed=0.00845x elapsed=0:00:35.49    \nframe=   12 fps=0.3 q=37.8 size=       0KiB time=00:00:00.33 bitrate=   1.1kbits/s speed=0.00925x elapsed=0:00:36.02    \nframe=   12 fps=0.3 q=37.8 size=       0KiB time=00:00:00.33 bitrate=   1.1kbits/s speed=0.00912x elapsed=0:00:36.54    \nframe=   12 fps=0.3 q=37.8 size=       0KiB time=00:00:00.33 bitrate=   1.1kbits/s speed=0.00899x elapsed=0:00:37.08    \nframe=   12 fps=0.3 q=37.8 size=       0KiB time=00:00:00.33 bitrate=   1.1kbits/s speed=0.00886x elapsed=0:00:37.61    \nframe=   12 fps=0.3 q=37.8 size=       0KiB time=00:00:00.33 bitrate=   1.1kbits/s speed=0.00874x elapsed=0:00:38.15    \nframe=   12 fps=0.3 q=37.8 size=       0KiB time=00:00:00.33 bitrate=   1.1kbits/s speed=0.00862x elapsed=0:00:38.66    \nframe=   13 fps=0.3 q=38.4 size=       0KiB time=00:00:00.36 bitrate=   1.0kbits/s speed=0.00936x elapsed=0:00:39.17    \nframe=   13 fps=0.3 q=38.4 size=       0KiB time=00:00:00.36 bitrate=   1.0kbits/s speed=0.00924x elapsed=0:00:39.69    \nframe=   13 fps=0.3 q=38.4 size=       0KiB time=00:00:00.36 bitrate=   1.0kbits/s speed=0.00912x elapsed=0:00:40.22    \nframe=   13 fps=0.3 q=38.4 size=       0KiB time=00:00:00.36 bitrate=   1.0kbits/s speed=0.009x elapsed=0:00:40.73    \nframe=   14 fps=0.3 q=38.1 size=       0KiB time=00:00:00.40 bitrate=   0.9kbits/s speed=0.0097x elapsed=0:00:41.25    \nframe=   14 fps=0.3 q=38.1 size=       0KiB time=00:00:00.40 bitrate=   0.9kbits/s speed=0.00957x elapsed=0:00:41.78    \nframe=   14 fps=0.3 q=38.1 size=       0KiB time=00:00:00.40 bitrate=   0.9kbits/s speed=0.00945x elapsed=0:00:42.30    \nframe=   14 fps=0.3 q=38.1 size=       0KiB time=00:00:00.40 bitrate=   0.9kbits/s speed=0.00934x elapsed=0:00:42.81    \nframe=   14 fps=0.3 q=38.1 size=       0KiB time=00:00:00.40 bitrate=   0.9kbits/s speed=0.00923x elapsed=0:00:43.34    \nframe=   15 fps=0.3 q=35.6 size=       0KiB time=00:00:00.43 bitrate=   0.8kbits/s speed=0.00988x elapsed=0:00:43.86    \nframe=   15 fps=0.3 q=35.6 size=       0KiB time=00:00:00.43 bitrate=   0.8kbits/s speed=0.00976x elapsed=0:00:44.38    \nframe=   15 fps=0.3 q=35.6 size=       0KiB time=00:00:00.43 bitrate=   0.8kbits/s speed=0.00965x elapsed=0:00:44.91    \nframe=   16 fps=0.4 q=37.8 size=       0KiB time=00:00:00.46 bitrate=   0.8kbits/s speed=0.0103x elapsed=0:00:45.43    \nframe=   16 fps=0.3 q=37.8 size=       0KiB time=00:00:00.46 bitrate=   0.8kbits/s speed=0.0102x elapsed=0:00:45.96    \nframe=   16 fps=0.3 q=37.8 size=       0KiB time=00:00:00.46 bitrate=   0.8kbits/s speed=0.01x elapsed=0:00:46.47    \nframe=   16 fps=0.3 q=37.8 size=       0KiB time=00:00:00.46 bitrate=   0.8kbits/s speed=0.00993x elapsed=0:00:47.00    \nframe=   17 fps=0.4 q=34.5 size=       0KiB time=00:00:00.50 bitrate=   0.7kbits/s speed=0.0105x elapsed=0:00:47.53    \nframe=   17 fps=0.4 q=34.5 size=       0KiB time=00:00:00.50 bitrate=   0.7kbits/s speed=0.0104x elapsed=0:00:48.06    \nframe=   17 fps=0.3 q=34.5 size=       0KiB time=00:00:00.50 bitrate=   0.7kbits/s speed=0.0103x elapsed=0:00:48.59    \nframe=   17 fps=0.3 q=34.5 size=       0KiB time=00:00:00.50 bitrate=   0.7kbits/s speed=0.0102x elapsed=0:00:49.12    \nframe=   17 fps=0.3 q=34.5 size=       0KiB time=00:00:00.50 bitrate=   0.7kbits/s speed=0.0101x elapsed=0:00:49.66    \nframe=   18 fps=0.4 q=37.1 size=       0KiB time=00:00:00.53 bitrate=   0.7kbits/s speed=0.0106x elapsed=0:00:50.18    \nframe=   18 fps=0.4 q=37.1 size=       0KiB time=00:00:00.53 bitrate=   0.7kbits/s speed=0.0105x elapsed=0:00:50.70    \nframe=   18 fps=0.4 q=37.1 size=       0KiB time=00:00:00.53 bitrate=   0.7kbits/s speed=0.0104x elapsed=0:00:51.22    \nframe=   18 fps=0.3 q=37.1 size=       0KiB time=00:00:00.53 bitrate=   0.7kbits/s speed=0.0103x elapsed=0:00:51.75    \nframe=   18 fps=0.3 q=37.1 size=       0KiB time=00:00:00.53 bitrate=   0.7kbits/s speed=0.0102x elapsed=0:00:52.29    \nframe=   19 fps=0.4 q=34.9 size=       0KiB time=00:00:00.56 bitrate=   0.6kbits/s speed=0.0107x elapsed=0:00:52.80    \nframe=   19 fps=0.4 q=34.9 size=       0KiB time=00:00:00.56 bitrate=   0.6kbits/s speed=0.0106x elapsed=0:00:53.32    \nframe=   19 fps=0.4 q=34.9 size=       0KiB time=00:00:00.56 bitrate=   0.6kbits/s speed=0.0105x elapsed=0:00:53.84    \nframe=   19 fps=0.3 q=34.9 size=       0KiB time=00:00:00.56 bitrate=   0.6kbits/s speed=0.0104x elapsed=0:00:54.37    \nframe=   19 fps=0.3 q=34.9 size=       0KiB time=00:00:00.56 bitrate=   0.6kbits/s speed=0.0103x elapsed=0:00:54.88    \nframe=   19 fps=0.3 q=34.9 size=       0KiB time=00:00:00.56 bitrate=   0.6kbits/s speed=0.0102x elapsed=0:00:55.40    \nframe=   20 fps=0.4 q=34.9 size=       0KiB time=00:00:00.60 bitrate=   0.6kbits/s speed=0.0107x elapsed=0:00:55.92    \nframe=   20 fps=0.4 q=34.9 size=       0KiB time=00:00:00.60 bitrate=   0.6kbits/s speed=0.0106x elapsed=0:00:56.45    \nframe=   20 fps=0.4 q=34.9 size=       0KiB time=00:00:00.60 bitrate=   0.6kbits/s speed=0.0105x elapsed=0:00:56.96    \nframe=   20 fps=0.3 q=34.9 size=       0KiB time=00:00:00.60 bitrate=   0.6kbits/s speed=0.0104x elapsed=0:00:57.47    \nframe=   20 fps=0.3 q=34.9 size=       0KiB time=00:00:00.60 bitrate=   0.6kbits/s speed=0.0103x elapsed=0:00:58.01    \nframe=   20 fps=0.3 q=34.9 size=       0KiB time=00:00:00.60 bitrate=   0.6kbits/s speed=0.0103x elapsed=0:00:58.53    \nframe=   21 fps=0.4 q=37.2 size=       0KiB time=00:00:00.63 bitrate=   0.6kbits/s speed=0.0107x elapsed=0:00:59.05    \nframe=   21 fps=0.4 q=37.2 size=       0KiB time=00:00:00.63 bitrate=   0.6kbits/s speed=0.0106x elapsed=0:00:59.55    \nframe=   21 fps=0.3 q=37.2 size=       0KiB time=00:00:00.63 bitrate=   0.6kbits/s speed=0.0105x elapsed=0:01:00.08    \nframe=   21 fps=0.3 q=37.2 size=       0KiB time=00:00:00.63 bitrate=   0.6kbits/s speed=0.0104x elapsed=0:01:00.61    \nframe=   21 fps=0.3 q=37.2 size=       0KiB time=00:00:00.63 bitrate=   0.6kbits/s speed=0.0104x elapsed=0:01:01.12    \nframe=   21 fps=0.3 q=37.2 size=       0KiB time=00:00:00.63 bitrate=   0.6kbits/s speed=0.0103x elapsed=0:01:01.63    \nframe=   21 fps=0.3 q=37.2 size=       0KiB time=00:00:00.63 bitrate=   0.6kbits/s speed=0.0102x elapsed=0:01:02.14    \nframe=   21 fps=0.3 q=37.2 size=       0KiB time=00:00:00.63 bitrate=   0.6kbits/s speed=0.0101x elapsed=0:01:02.69    \nframe=   22 fps=0.3 q=34.7 size=       0KiB time=00:00:00.66 bitrate=   0.5kbits/s speed=0.0105x elapsed=0:01:03.23    \nframe=   22 fps=0.3 q=34.7 size=       0KiB time=00:00:00.66 bitrate=   0.5kbits/s speed=0.0105x elapsed=0:01:03.74    \nframe=   22 fps=0.3 q=34.7 size=       0KiB time=00:00:00.66 bitrate=   0.5kbits/s speed=0.0104x elapsed=0:01:04.26    \nframe=   22 fps=0.3 q=34.7 size=       0KiB time=00:00:00.66 bitrate=   0.5kbits/s speed=0.0103x elapsed=0:01:04.81    \nframe=   22 fps=0.3 q=34.7 size=       0KiB time=00:00:00.66 bitrate=   0.5kbits/s speed=0.0102x elapsed=0:01:05.36    \nframe=   22 fps=0.3 q=34.7 size=       0KiB time=00:00:00.66 bitrate=   0.5kbits/s speed=0.0101x elapsed=0:01:05.91    \nframe=   22 fps=0.3 q=34.7 size=       0KiB time=00:00:00.66 bitrate=   0.5kbits/s speed=0.01x elapsed=0:01:06.45    \nframe=   23 fps=0.3 q=37.0 size=       0KiB time=00:00:00.70 bitrate=   0.5kbits/s speed=0.0105x elapsed=0:01:06.97    \nframe=   23 fps=0.3 q=37.0 size=       0KiB time=00:00:00.70 bitrate=   0.5kbits/s speed=0.0104x elapsed=0:01:07.49    \nframe=   23 fps=0.3 q=37.0 size=       0KiB time=00:00:00.70 bitrate=   0.5kbits/s speed=0.0103x elapsed=0:01:08.03    \nframe=   23 fps=0.3 q=37.0 size=       0KiB time=00:00:00.70 bitrate=   0.5kbits/s speed=0.0102x elapsed=0:01:08.57    \nframe=   24 fps=0.3 q=34.8 size=       0KiB time=00:00:00.73 bitrate=   0.5kbits/s speed=0.0106x elapsed=0:01:09.09    \nframe=   24 fps=0.3 q=34.8 size=       0KiB time=00:00:00.73 bitrate=   0.5kbits/s speed=0.0105x elapsed=0:01:09.60    \nframe=   24 fps=0.3 q=34.8 size=       0KiB time=00:00:00.73 bitrate=   0.5kbits/s speed=0.0105x elapsed=0:01:10.13    \nframe=   24 fps=0.3 q=34.8 size=       0KiB time=00:00:00.73 bitrate=   0.5kbits/s speed=0.0104x elapsed=0:01:10.66    \nframe=   24 fps=0.3 q=34.8 size=       0KiB time=00:00:00.73 bitrate=   0.5kbits/s speed=0.0103x elapsed=0:01:11.19    \nframe=   24 fps=0.3 q=34.8 size=       0KiB time=00:00:00.73 bitrate=   0.5kbits/s speed=0.0102x elapsed=0:01:11.71    \nframe=   24 fps=0.3 q=34.8 size=       0KiB time=00:00:00.73 bitrate=   0.5kbits/s speed=0.0102x elapsed=0:01:12.23    \nframe=   25 fps=0.3 q=34.7 size=       0KiB time=00:00:00.76 bitrate=   0.5kbits/s speed=0.0105x elapsed=0:01:12.74    \nframe=   25 fps=0.3 q=34.7 size=       0KiB time=00:00:00.76 bitrate=   0.5kbits/s speed=0.0105x elapsed=0:01:13.27    \nframe=   25 fps=0.3 q=34.7 size=       0KiB time=00:00:00.76 bitrate=   0.5kbits/s speed=0.0104x elapsed=0:01:13.78    \nframe=   25 fps=0.3 q=34.7 size=       0KiB time=00:00:00.76 bitrate=   0.5kbits/s speed=0.0103x elapsed=0:01:14.31    \nframe=   26 fps=0.3 q=37.2 size=       0KiB time=00:00:00.80 bitrate=   0.4kbits/s speed=0.0107x elapsed=0:01:14.84    \nframe=   26 fps=0.3 q=37.2 size=       0KiB time=00:00:00.80 bitrate=   0.4kbits/s speed=0.0106x elapsed=0:01:15.38    \nframe=   26 fps=0.3 q=37.2 size=       0KiB time=00:00:00.80 bitrate=   0.4kbits/s speed=0.0105x elapsed=0:01:15.90    \nframe=   26 fps=0.3 q=37.2 size=       0KiB time=00:00:00.80 bitrate=   0.4kbits/s speed=0.0105x elapsed=0:01:16.42    \nframe=   27 fps=0.4 q=35.0 size=       0KiB time=00:00:00.83 bitrate=   0.4kbits/s speed=0.0108x elapsed=0:01:16.94    \nframe=   27 fps=0.3 q=35.0 size=       0KiB time=00:00:00.83 bitrate=   0.4kbits/s speed=0.0108x elapsed=0:01:17.46    \nframe=   27 fps=0.3 q=35.0 size=       0KiB time=00:00:00.83 bitrate=   0.4kbits/s speed=0.0107x elapsed=0:01:17.98    \nframe=   27 fps=0.3 q=35.0 size=       0KiB time=00:00:00.83 bitrate=   0.4kbits/s speed=0.0106x elapsed=0:01:18.49    \nframe=   28 fps=0.4 q=37.5 size=       0KiB time=00:00:00.86 bitrate=   0.4kbits/s speed=0.011x elapsed=0:01:19.01    \nframe=   28 fps=0.4 q=37.5 size=       0KiB time=00:00:00.86 bitrate=   0.4kbits/s speed=0.0109x elapsed=0:01:19.52    \nframe=   29 fps=0.4 q=35.2 size=       0KiB time=00:00:00.90 bitrate=   0.4kbits/s speed=0.0112x elapsed=0:01:20.04    \nframe=   29 fps=0.4 q=35.2 size=       0KiB time=00:00:00.90 bitrate=   0.4kbits/s speed=0.0112x elapsed=0:01:20.56    \nframe=   29 fps=0.4 q=35.2 size=       0KiB time=00:00:00.90 bitrate=   0.4kbits/s speed=0.0111x elapsed=0:01:21.09    \nframe=   30 fps=0.4 q=36.3 size=       0KiB time=00:00:00.93 bitrate=   0.4kbits/s speed=0.0114x elapsed=0:01:21.60    \nframe=   30 fps=0.4 q=36.3 size=       0KiB time=00:00:00.93 bitrate=   0.4kbits/s speed=0.0114x elapsed=0:01:22.12    \nframe=   30 fps=0.4 q=36.3 size=       0KiB time=00:00:00.93 bitrate=   0.4kbits/s speed=0.0113x elapsed=0:01:22.65    \nframe=   30 fps=0.4 q=36.3 size=       0KiB time=00:00:00.93 bitrate=   0.4kbits/s speed=0.0112x elapsed=0:01:23.19    \nframe=   30 fps=0.4 q=36.3 size=       0KiB time=00:00:00.93 bitrate=   0.4kbits/s speed=0.0111x elapsed=0:01:23.72    \nframe=   30 fps=0.4 q=36.3 size=       0KiB time=00:00:00.93 bitrate=   0.4kbits/s speed=0.0111x elapsed=0:01:24.25    \nframe=   30 fps=0.4 q=36.3 size=       0KiB time=00:00:00.93 bitrate=   0.4kbits/s speed=0.011x elapsed=0:01:24.85    \nframe=   30 fps=0.4 q=36.3 size=       0KiB time=00:00:00.93 bitrate=   0.4kbits/s speed=0.0109x elapsed=0:01:25.40    \nframe=   30 fps=0.3 q=36.3 size=       0KiB time=00:00:00.93 bitrate=   0.4kbits/s speed=0.0109x elapsed=0:01:25.91    \nframe=   31 fps=0.4 q=37.7 size=       0KiB time=00:00:00.96 bitrate=   0.4kbits/s speed=0.0112x elapsed=0:01:26.45    \nframe=   31 fps=0.4 q=37.7 size=       0KiB time=00:00:00.96 bitrate=   0.4kbits/s speed=0.0111x elapsed=0:01:26.97    \nframe=   31 fps=0.4 q=37.7 size=       0KiB time=00:00:00.96 bitrate=   0.4kbits/s speed=0.011x elapsed=0:01:27.49    \nframe=   31 fps=0.4 q=37.7 size=       0KiB time=00:00:00.96 bitrate=   0.4kbits/s speed=0.011x elapsed=0:01:28.04    \nframe=   32 fps=0.4 q=37.6 size=       0KiB time=00:00:01.00 bitrate=   0.4kbits/s speed=0.0113x elapsed=0:01:28.57    \nframe=   32 fps=0.4 q=37.6 size=       0KiB time=00:00:01.00 bitrate=   0.4kbits/s speed=0.0112x elapsed=0:01:29.10    \nframe=   32 fps=0.4 q=37.6 size=       0KiB time=00:00:01.00 bitrate=   0.4kbits/s speed=0.0112x elapsed=0:01:29.62    \nframe=   32 fps=0.4 q=37.6 size=       0KiB time=00:00:01.00 bitrate=   0.4kbits/s speed=0.0111x elapsed=0:01:30.16    \nframe=   32 fps=0.4 q=37.6 size=       0KiB time=00:00:01.00 bitrate=   0.4kbits/s speed=0.011x elapsed=0:01:30.71    \nframe=   32 fps=0.4 q=37.6 size=       0KiB time=00:00:01.00 bitrate=   0.4kbits/s speed=0.011x elapsed=0:01:31.25    \nframe=   32 fps=0.3 q=37.6 size=       0KiB time=00:00:01.00 bitrate=   0.4kbits/s speed=0.0109x elapsed=0:01:31.77    \nframe=   32 fps=0.3 q=37.6 size=       0KiB time=00:00:01.00 bitrate=   0.4kbits/s speed=0.0108x elapsed=0:01:32.31    \nframe=   32 fps=0.3 q=37.6 size=       0KiB time=00:00:01.00 bitrate=   0.4kbits/s speed=0.0108x elapsed=0:01:32.83    \nframe=   33 fps=0.4 q=35.2 size=       0KiB time=00:00:01.03 bitrate=   0.3kbits/s speed=0.0111x elapsed=0:01:33.38    \nframe=   33 fps=0.4 q=35.2 size=       0KiB time=00:00:01.03 bitrate=   0.3kbits/s speed=0.011x elapsed=0:01:33.91    \nframe=   34 fps=0.4 q=37.6 size=       0KiB time=00:00:01.06 bitrate=   0.3kbits/s speed=0.0113x elapsed=0:01:34.44    \nframe=   34 fps=0.4 q=37.6 size=       0KiB time=00:00:01.06 bitrate=   0.3kbits/s speed=0.0112x elapsed=0:01:34.97    \nframe=   34 fps=0.4 q=37.6 size=       0KiB time=00:00:01.06 bitrate=   0.3kbits/s speed=0.0112x elapsed=0:01:35.49    \nframe=   34 fps=0.4 q=37.6 size=       0KiB time=00:00:01.06 bitrate=   0.3kbits/s speed=0.0111x elapsed=0:01:36.02    \nframe=   35 fps=0.4 q=33.8 size=       0KiB time=00:00:01.10 bitrate=   0.3kbits/s speed=0.0114x elapsed=0:01:36.55    \nframe=   36 fps=0.4 q=36.2 size=       0KiB time=00:00:01.13 bitrate=   0.3kbits/s speed=0.0117x elapsed=0:01:37.06    \nframe=   36 fps=0.4 q=36.2 size=       0KiB time=00:00:01.13 bitrate=   0.3kbits/s speed=0.0116x elapsed=0:01:37.58    \nframe=   36 fps=0.4 q=36.2 size=       0KiB time=00:00:01.13 bitrate=   0.3kbits/s speed=0.0116x elapsed=0:01:38.10    \nframe=   36 fps=0.4 q=36.2 size=       0KiB time=00:00:01.13 bitrate=   0.3kbits/s speed=0.0115x elapsed=0:01:38.61    \nframe=   36 fps=0.4 q=36.2 size=       0KiB time=00:00:01.13 bitrate=   0.3kbits/s speed=0.0114x elapsed=0:01:39.15    \nframe=   37 fps=0.4 q=38.2 size=       0KiB time=00:00:01.16 bitrate=   0.3kbits/s speed=0.0117x elapsed=0:01:39.66    \nframe=   37 fps=0.4 q=38.2 size=       0KiB time=00:00:01.16 bitrate=   0.3kbits/s speed=0.0116x elapsed=0:01:40.18    \nframe=   37 fps=0.4 q=38.2 size=       0KiB time=00:00:01.16 bitrate=   0.3kbits/s speed=0.0116x elapsed=0:01:40.70    \nframe=   38 fps=0.4 q=38.8 size=       0KiB time=00:00:01.20 bitrate=   0.3kbits/s speed=0.0119x elapsed=0:01:41.23    \nframe=   38 fps=0.4 q=38.8 size=       0KiB time=00:00:01.20 bitrate=   0.3kbits/s speed=0.0118x elapsed=0:01:41.76    \nframe=   38 fps=0.4 q=38.8 size=       0KiB time=00:00:01.20 bitrate=   0.3kbits/s speed=0.0117x elapsed=0:01:42.30    \nframe=   38 fps=0.4 q=38.8 size=       0KiB time=00:00:01.20 bitrate=   0.3kbits/s speed=0.0117x elapsed=0:01:42.85    \nframe=   40 fps=0.4 q=36.7 size=       0KiB time=00:00:01.26 bitrate=   0.3kbits/s speed=0.0123x elapsed=0:01:43.38    \nframe=   40 fps=0.4 q=36.7 size=       0KiB time=00:00:01.26 bitrate=   0.3kbits/s speed=0.0122x elapsed=0:01:43.91    \nframe=   41 fps=0.4 q=38.7 size=       0KiB time=00:00:01.30 bitrate=   0.3kbits/s speed=0.0124x elapsed=0:01:44.45    \nframe=   41 fps=0.4 q=38.7 size=       0KiB time=00:00:01.30 bitrate=   0.3kbits/s speed=0.0124x elapsed=0:01:45.00    \nframe=   41 fps=0.4 q=38.7 size=       0KiB time=00:00:01.30 bitrate=   0.3kbits/s speed=0.0123x elapsed=0:01:45.53    \nframe=   41 fps=0.4 q=38.7 size=       0KiB time=00:00:01.30 bitrate=   0.3kbits/s speed=0.0123x elapsed=0:01:46.03    \nframe=   41 fps=0.4 q=38.7 size=       0KiB time=00:00:01.30 bitrate=   0.3kbits/s speed=0.0122x elapsed=0:01:46.56    \nframe=   41 fps=0.4 q=38.7 size=       0KiB time=00:00:01.30 bitrate=   0.3kbits/s speed=0.0121x elapsed=0:01:47.09    \nframe=   41 fps=0.4 q=38.7 size=       0KiB time=00:00:01.30 bitrate=   0.3kbits/s speed=0.0121x elapsed=0:01:47.63    \nframe=   42 fps=0.4 q=38.8 size=       0KiB time=00:00:01.33 bitrate=   0.3kbits/s speed=0.0123x elapsed=0:01:48.15    \nframe=   42 fps=0.4 q=38.8 size=       0KiB time=00:00:01.33 bitrate=   0.3kbits/s speed=0.0123x elapsed=0:01:48.67    \nframe=   42 fps=0.4 q=38.8 size=       0KiB time=00:00:01.33 bitrate=   0.3kbits/s speed=0.0122x elapsed=0:01:49.21    \nframe=   43 fps=0.4 q=34.5 size=       0KiB time=00:00:01.36 bitrate=   0.3kbits/s speed=0.0125x elapsed=0:01:49.72    \nframe=   43 fps=0.4 q=34.5 size=       0KiB time=00:00:01.36 bitrate=   0.3kbits/s speed=0.0124x elapsed=0:01:50.25    \nframe=   43 fps=0.4 q=34.5 size=       0KiB time=00:00:01.36 bitrate=   0.3kbits/s speed=0.0123x elapsed=0:01:50.77    \nframe=   44 fps=0.4 q=36.4 size=       0KiB time=00:00:01.40 bitrate=   0.3kbits/s speed=0.0126x elapsed=0:01:51.33    \nframe=   45 fps=0.4 q=39.2 size=     256KiB time=00:00:01.43 bitrate=1463.4kbits/s speed=0.0128x elapsed=0:01:51.86    \nframe=   45 fps=0.4 q=39.2 size=     256KiB time=00:00:01.43 bitrate=1463.4kbits/s speed=0.0128x elapsed=0:01:52.39    \nframe=   45 fps=0.4 q=39.2 size=     256KiB time=00:00:01.43 bitrate=1463.4kbits/s speed=0.0127x elapsed=0:01:52.91    \nframe=   45 fps=0.4 q=39.2 size=     256KiB time=00:00:01.43 bitrate=1463.4kbits/s speed=0.0126x elapsed=0:01:53.42    \nframe=   46 fps=0.4 q=38.9 size=     256KiB time=00:00:01.46 bitrate=1430.1kbits/s speed=0.0129x elapsed=0:01:53.95    \nframe=   46 fps=0.4 q=38.9 size=     256KiB time=00:00:01.46 bitrate=1430.1kbits/s speed=0.0128x elapsed=0:01:54.46    \nframe=   46 fps=0.4 q=38.9 size=     256KiB time=00:00:01.46 bitrate=1430.1kbits/s speed=0.0128x elapsed=0:01:54.99    \nframe=   47 fps=0.4 q=38.9 size=     256KiB time=00:00:01.50 bitrate=1398.3kbits/s speed=0.013x elapsed=0:01:55.51    \nframe=   47 fps=0.4 q=38.9 size=     256KiB time=00:00:01.50 bitrate=1398.3kbits/s speed=0.0129x elapsed=0:01:56.03    \nframe=   47 fps=0.4 q=38.9 size=     256KiB time=00:00:01.50 bitrate=1398.3kbits/s speed=0.0129x elapsed=0:01:56.54    \nframe=   48 fps=0.4 q=34.6 size=     256KiB time=00:00:01.53 bitrate=1367.9kbits/s speed=0.0131x elapsed=0:01:57.05    \nframe=   49 fps=0.4 q=36.5 size=     256KiB time=00:00:01.56 bitrate=1338.8kbits/s speed=0.0133x elapsed=0:01:57.58    \nframe=   49 fps=0.4 q=36.5 size=     256KiB time=00:00:01.56 bitrate=1338.8kbits/s speed=0.0133x elapsed=0:01:58.10    \nframe=   50 fps=0.4 q=39.1 size=     256KiB time=00:00:01.60 bitrate=1310.9kbits/s speed=0.0135x elapsed=0:01:58.62    \nframe=   50 fps=0.4 q=39.1 size=     256KiB time=00:00:01.60 bitrate=1310.9kbits/s speed=0.0134x elapsed=0:01:59.13    \nframe=   50 fps=0.4 q=39.1 size=     256KiB time=00:00:01.60 bitrate=1310.9kbits/s speed=0.0134x elapsed=0:01:59.65    \nframe=   51 fps=0.4 q=39.1 size=     256KiB time=00:00:01.63 bitrate=1284.2kbits/s speed=0.0136x elapsed=0:02:00.16    \nframe=   51 fps=0.4 q=39.1 size=     256KiB time=00:00:01.63 bitrate=1284.2kbits/s speed=0.0135x elapsed=0:02:00.70    \nframe=   51 fps=0.4 q=39.1 size=     256KiB time=00:00:01.63 bitrate=1284.2kbits/s speed=0.0135x elapsed=0:02:01.23    \nframe=   51 fps=0.4 q=39.1 size=     256KiB time=00:00:01.63 bitrate=1284.2kbits/s speed=0.0134x elapsed=0:02:01.78    \nframe=   52 fps=0.4 q=35.3 size=     256KiB time=00:00:01.66 bitrate=1258.5kbits/s speed=0.0136x elapsed=0:02:02.31    \nframe=   52 fps=0.4 q=35.3 size=     256KiB time=00:00:01.66 bitrate=1258.5kbits/s speed=0.0136x elapsed=0:02:02.82    \nframe=   52 fps=0.4 q=35.3 size=     256KiB time=00:00:01.66 bitrate=1258.5kbits/s speed=0.0135x elapsed=0:02:03.36    \nframe=   52 fps=0.4 q=35.3 size=     256KiB time=00:00:01.66 bitrate=1258.5kbits/s speed=0.0135x elapsed=0:02:03.87    \nframe=   53 fps=0.4 q=36.4 size=     256KiB time=00:00:01.70 bitrate=1233.8kbits/s speed=0.0137x elapsed=0:02:04.40    \nframe=   54 fps=0.4 q=38.9 size=     256KiB time=00:00:01.73 bitrate=1210.1kbits/s speed=0.0139x elapsed=0:02:04.95    \nframe=   54 fps=0.4 q=38.9 size=     256KiB time=00:00:01.73 bitrate=1210.1kbits/s speed=0.0138x elapsed=0:02:05.49    \nframe=   54 fps=0.4 q=38.9 size=     256KiB time=00:00:01.73 bitrate=1210.1kbits/s speed=0.0138x elapsed=0:02:06.00    \nframe=   55 fps=0.4 q=38.9 size=     256KiB time=00:00:01.76 bitrate=1187.3kbits/s speed=0.014x elapsed=0:02:06.53    \nframe=   55 fps=0.4 q=38.9 size=     256KiB time=00:00:01.76 bitrate=1187.3kbits/s speed=0.0139x elapsed=0:02:07.04    \nframe=   56 fps=0.4 q=39.4 size=     256KiB time=00:00:01.80 bitrate=1165.3kbits/s speed=0.0141x elapsed=0:02:07.55    \nframe=   57 fps=0.4 q=34.8 size=     256KiB time=00:00:01.83 bitrate=1144.1kbits/s speed=0.0143x elapsed=0:02:08.08    \nframe=   57 fps=0.4 q=34.8 size=     256KiB time=00:00:01.83 bitrate=1144.1kbits/s speed=0.0143x elapsed=0:02:08.59    \nframe=   58 fps=0.4 q=36.5 size=     256KiB time=00:00:01.86 bitrate=1123.7kbits/s speed=0.0145x elapsed=0:02:09.10    \nframe=   59 fps=0.5 q=38.9 size=     256KiB time=00:00:01.90 bitrate=1103.9kbits/s speed=0.0147x elapsed=0:02:09.62    \nframe=   60 fps=0.5 q=38.9 size=     256KiB time=00:00:01.93 bitrate=1084.9kbits/s speed=0.0149x elapsed=0:02:10.13    \nframe=   61 fps=0.5 q=39.3 size=     256KiB time=00:00:01.96 bitrate=1066.5kbits/s speed=0.0151x elapsed=0:02:10.66    \nframe=   62 fps=0.5 q=34.7 size=     256KiB time=00:00:02.00 bitrate=1048.8kbits/s speed=0.0152x elapsed=0:02:11.17    \nframe=   63 fps=0.5 q=35.9 size=     256KiB time=00:00:02.03 bitrate=1031.6kbits/s speed=0.0154x elapsed=0:02:11.68    \nframe=   63 fps=0.5 q=35.9 size=     256KiB time=00:00:02.03 bitrate=1031.6kbits/s speed=0.0154x elapsed=0:02:12.20    \nframe=   63 fps=0.5 q=35.9 size=     256KiB time=00:00:02.03 bitrate=1031.6kbits/s speed=0.0153x elapsed=0:02:12.73    \nframe=   63 fps=0.5 q=35.9 size=     256KiB time=00:00:02.03 bitrate=1031.6kbits/s speed=0.0153x elapsed=0:02:13.24    \nframe=   63 fps=0.5 q=35.9 size=     256KiB time=00:00:02.03 bitrate=1031.6kbits/s speed=0.0152x elapsed=0:02:13.75    \nframe=   65 fps=0.5 q=39.5 size=     256KiB time=00:00:02.10 bitrate= 998.8kbits/s speed=0.0156x elapsed=0:02:14.27    \nframe=   65 fps=0.5 q=39.5 size=     256KiB time=00:00:02.10 bitrate= 998.8kbits/s speed=0.0156x elapsed=0:02:14.81    \nframe=   65 fps=0.5 q=39.5 size=     256KiB time=00:00:02.10 bitrate= 998.8kbits/s speed=0.0155x elapsed=0:02:15.35    \nframe=   65 fps=0.5 q=39.5 size=     256KiB time=00:00:02.10 bitrate= 998.8kbits/s speed=0.0155x elapsed=0:02:15.87    \nframe=   65 fps=0.5 q=39.5 size=     256KiB time=00:00:02.10 bitrate= 998.8kbits/s speed=0.0154x elapsed=0:02:16.40    \nframe=   66 fps=0.5 q=39.8 size=     256KiB time=00:00:02.13 bitrate= 983.2kbits/s speed=0.0156x elapsed=0:02:16.95    \nframe=   66 fps=0.5 q=39.8 size=     256KiB time=00:00:02.13 bitrate= 983.2kbits/s speed=0.0155x elapsed=0:02:17.47    \nframe=   66 fps=0.5 q=39.8 size=     256KiB time=00:00:02.13 bitrate= 983.2kbits/s speed=0.0155x elapsed=0:02:18.00    \nframe=   66 fps=0.5 q=39.8 size=     256KiB time=00:00:02.13 bitrate= 983.2kbits/s speed=0.0154x elapsed=0:02:18.54    \nframe=   66 fps=0.5 q=39.8 size=     256KiB time=00:00:02.13 bitrate= 983.2kbits/s speed=0.0153x elapsed=0:02:19.08    \nframe=   67 fps=0.5 q=34.8 size=     256KiB time=00:00:02.16 bitrate= 968.1kbits/s speed=0.0155x elapsed=0:02:19.59    \nframe=   68 fps=0.5 q=37.5 size=     256KiB time=00:00:02.20 bitrate= 953.4kbits/s speed=0.0157x elapsed=0:02:20.13    \nframe=   68 fps=0.5 q=37.5 size=     256KiB time=00:00:02.20 bitrate= 953.4kbits/s speed=0.0156x elapsed=0:02:20.68    \nframe=   68 fps=0.5 q=37.5 size=     256KiB time=00:00:02.20 bitrate= 953.4kbits/s speed=0.0156x elapsed=0:02:21.20    \nframe=   68 fps=0.5 q=37.5 size=     256KiB time=00:00:02.20 bitrate= 953.4kbits/s speed=0.0155x elapsed=0:02:21.72    \nframe=   68 fps=0.5 q=37.5 size=     256KiB time=00:00:02.20 bitrate= 953.4kbits/s speed=0.0155x elapsed=0:02:22.24    \nframe=   69 fps=0.5 q=38.9 size=     256KiB time=00:00:02.23 bitrate= 939.2kbits/s speed=0.0156x elapsed=0:02:22.76    \nframe=   70 fps=0.5 q=39.1 size=     256KiB time=00:00:02.26 bitrate= 925.4kbits/s speed=0.0158x elapsed=0:02:23.27    \nframe=   70 fps=0.5 q=39.1 size=     256KiB time=00:00:02.26 bitrate= 925.4kbits/s speed=0.0158x elapsed=0:02:23.81    \nframe=   70 fps=0.5 q=39.1 size=     256KiB time=00:00:02.26 bitrate= 925.4kbits/s speed=0.0157x elapsed=0:02:24.34    \nframe=   71 fps=0.5 q=39.6 size=     256KiB time=00:00:02.30 bitrate= 912.0kbits/s speed=0.0159x elapsed=0:02:24.85    \nframe=   72 fps=0.5 q=34.7 size=     256KiB time=00:00:02.33 bitrate= 898.9kbits/s speed=0.016x elapsed=0:02:25.37    \nframe=   72 fps=0.5 q=34.7 size=     256KiB time=00:00:02.33 bitrate= 898.9kbits/s speed=0.016x elapsed=0:02:25.91    \nframe=   73 fps=0.5 q=37.7 size=     256KiB time=00:00:02.36 bitrate= 886.3kbits/s speed=0.0162x elapsed=0:02:26.43    \nframe=   73 fps=0.5 q=37.7 size=     256KiB time=00:00:02.36 bitrate= 886.3kbits/s speed=0.0161x elapsed=0:02:26.95    \nframe=   73 fps=0.5 q=37.7 size=     256KiB time=00:00:02.36 bitrate= 886.3kbits/s speed=0.016x elapsed=0:02:27.47    \nframe=   73 fps=0.5 q=37.7 size=     256KiB time=00:00:02.36 bitrate= 886.3kbits/s speed=0.016x elapsed=0:02:27.99    \nframe=   74 fps=0.5 q=39.6 size=     256KiB time=00:00:02.40 bitrate= 874.0kbits/s speed=0.0162x elapsed=0:02:28.50    \nframe=   75 fps=0.5 q=39.4 size=     256KiB time=00:00:02.43 bitrate= 862.0kbits/s speed=0.0163x elapsed=0:02:29.03    \nframe=   75 fps=0.5 q=39.4 size=     256KiB time=00:00:02.43 bitrate= 862.0kbits/s speed=0.0163x elapsed=0:02:29.55    \nframe=   76 fps=0.5 q=39.6 size=     256KiB time=00:00:02.46 bitrate= 850.3kbits/s speed=0.0164x elapsed=0:02:30.06    \nframe=   76 fps=0.5 q=39.6 size=     256KiB time=00:00:02.46 bitrate= 850.3kbits/s speed=0.0164x elapsed=0:02:30.59    \nframe=   77 fps=0.5 q=34.5 size=     256KiB time=00:00:02.50 bitrate= 839.0kbits/s speed=0.0165x elapsed=0:02:31.12    \nframe=   77 fps=0.5 q=34.5 size=     256KiB time=00:00:02.50 bitrate= 839.0kbits/s speed=0.0165x elapsed=0:02:31.65    \nframe=   77 fps=0.5 q=34.5 size=     256KiB time=00:00:02.50 bitrate= 839.0kbits/s speed=0.0164x elapsed=0:02:32.16    \nframe=   78 fps=0.5 q=36.6 size=     256KiB time=00:00:02.53 bitrate= 828.0kbits/s speed=0.0166x elapsed=0:02:32.69    \nframe=   78 fps=0.5 q=36.6 size=     256KiB time=00:00:02.53 bitrate= 828.0kbits/s speed=0.0165x elapsed=0:02:33.20    \nframe=   78 fps=0.5 q=36.6 size=     256KiB time=00:00:02.53 bitrate= 828.0kbits/s speed=0.0165x elapsed=0:02:33.72    \nframe=   78 fps=0.5 q=36.6 size=     256KiB time=00:00:02.53 bitrate= 828.0kbits/s speed=0.0164x elapsed=0:02:34.24    \nframe=   78 fps=0.5 q=36.6 size=     256KiB time=00:00:02.53 bitrate= 828.0kbits/s speed=0.0164x elapsed=0:02:34.76    \nframe=   79 fps=0.5 q=39.2 size=     256KiB time=00:00:02.56 bitrate= 817.2kbits/s speed=0.0165x elapsed=0:02:35.31    \nframe=   80 fps=0.5 q=39.3 size=     256KiB time=00:00:02.60 bitrate= 806.7kbits/s speed=0.0167x elapsed=0:02:35.85    \nframe=   81 fps=0.5 q=35.0 size=     256KiB time=00:00:02.63 bitrate= 796.5kbits/s speed=0.0168x elapsed=0:02:36.38    \nframe=   81 fps=0.5 q=35.0 size=     256KiB time=00:00:02.63 bitrate= 796.5kbits/s speed=0.0168x elapsed=0:02:36.90    \nframe=   81 fps=0.5 q=35.0 size=     256KiB time=00:00:02.63 bitrate= 796.5kbits/s speed=0.0167x elapsed=0:02:37.42    \nframe=   82 fps=0.5 q=36.4 size=     256KiB time=00:00:02.66 bitrate= 786.6kbits/s speed=0.0169x elapsed=0:02:37.93    \nframe=   83 fps=0.5 q=38.8 size=     256KiB time=00:00:02.70 bitrate= 776.9kbits/s speed=0.017x elapsed=0:02:38.44    \nframe=   83 fps=0.5 q=38.8 size=     256KiB time=00:00:02.70 bitrate= 776.9kbits/s speed=0.017x elapsed=0:02:38.97    \nframe=   84 fps=0.5 q=38.9 size=     256KiB time=00:00:02.73 bitrate= 767.4kbits/s speed=0.0171x elapsed=0:02:39.49    \nframe=   84 fps=0.5 q=38.9 size=     256KiB time=00:00:02.73 bitrate= 767.4kbits/s speed=0.0171x elapsed=0:02:40.01    \nframe=   85 fps=0.5 q=38.9 size=     256KiB time=00:00:02.76 bitrate= 758.1kbits/s speed=0.0172x elapsed=0:02:40.53    \nframe=   85 fps=0.5 q=38.9 size=     256KiB time=00:00:02.76 bitrate= 758.1kbits/s speed=0.0172x elapsed=0:02:41.05    \nframe=   86 fps=0.5 q=34.5 size=     256KiB time=00:00:02.80 bitrate= 749.1kbits/s speed=0.0173x elapsed=0:02:41.57    \nframe=   86 fps=0.5 q=34.5 size=     256KiB time=00:00:02.80 bitrate= 749.1kbits/s speed=0.0173x elapsed=0:02:42.09    \nframe=   86 fps=0.5 q=34.5 size=     256KiB time=00:00:02.80 bitrate= 749.1kbits/s speed=0.0172x elapsed=0:02:42.61    \nframe=   86 fps=0.5 q=34.5 size=     256KiB time=00:00:02.80 bitrate= 749.1kbits/s speed=0.0172x elapsed=0:02:43.14    \nframe=   86 fps=0.5 q=34.5 size=     256KiB time=00:00:02.80 bitrate= 749.1kbits/s speed=0.0171x elapsed=0:02:43.67    \nframe=   86 fps=0.5 q=34.5 size=     256KiB time=00:00:02.80 bitrate= 749.1kbits/s speed=0.017x elapsed=0:02:44.25    \nframe=   87 fps=0.5 q=36.9 size=     512KiB time=00:00:02.83 bitrate=1480.5kbits/s speed=0.0172x elapsed=0:02:44.80    \nframe=   87 fps=0.5 q=36.9 size=     512KiB time=00:00:02.83 bitrate=1480.5kbits/s speed=0.0171x elapsed=0:02:45.33    \nframe=   87 fps=0.5 q=36.9 size=     512KiB time=00:00:02.83 bitrate=1480.5kbits/s speed=0.0171x elapsed=0:02:45.95    \nframe=   88 fps=0.5 q=39.1 size=     512KiB time=00:00:02.86 bitrate=1463.3kbits/s speed=0.0172x elapsed=0:02:46.51    \nframe=   88 fps=0.5 q=39.1 size=     512KiB time=00:00:02.86 bitrate=1463.3kbits/s speed=0.0172x elapsed=0:02:47.06    \nframe=   88 fps=0.5 q=39.1 size=     512KiB time=00:00:02.86 bitrate=1463.3kbits/s speed=0.0171x elapsed=0:02:47.57    \nframe=   88 fps=0.5 q=39.1 size=     512KiB time=00:00:02.86 bitrate=1463.3kbits/s speed=0.0171x elapsed=0:02:48.09    \nframe=   88 fps=0.5 q=39.1 size=     512KiB time=00:00:02.86 bitrate=1463.3kbits/s speed=0.017x elapsed=0:02:48.62    \nframe=   88 fps=0.5 q=39.1 size=     512KiB time=00:00:02.86 bitrate=1463.3kbits/s speed=0.0169x elapsed=0:02:49.18    \nframe=   88 fps=0.5 q=39.1 size=     512KiB time=00:00:02.86 bitrate=1463.3kbits/s speed=0.0169x elapsed=0:02:49.69    \nframe=   88 fps=0.5 q=39.1 size=     512KiB time=00:00:02.86 bitrate=1463.3kbits/s speed=0.0168x elapsed=0:02:50.21    \nframe=   89 fps=0.5 q=39.3 size=     512KiB time=00:00:02.90 bitrate=1446.4kbits/s speed=0.017x elapsed=0:02:50.73    \nframe=   89 fps=0.5 q=39.3 size=     512KiB time=00:00:02.90 bitrate=1446.4kbits/s speed=0.0169x elapsed=0:02:51.25    \nframe=   90 fps=0.5 q=34.7 size=     512KiB time=00:00:02.93 bitrate=1430.0kbits/s speed=0.0171x elapsed=0:02:51.77    \nframe=   90 fps=0.5 q=34.7 size=     512KiB time=00:00:02.93 bitrate=1430.0kbits/s speed=0.017x elapsed=0:02:52.29    \nframe=   91 fps=0.5 q=36.5 size=     512KiB time=00:00:02.96 bitrate=1413.9kbits/s speed=0.0172x elapsed=0:02:52.80    \nframe=   91 fps=0.5 q=36.5 size=     512KiB time=00:00:02.96 bitrate=1413.9kbits/s speed=0.0171x elapsed=0:02:53.34    \nframe=   92 fps=0.5 q=38.9 size=     512KiB time=00:00:03.00 bitrate=1398.2kbits/s speed=0.0173x elapsed=0:02:53.87    \nframe=   92 fps=0.5 q=38.9 size=     512KiB time=00:00:03.00 bitrate=1398.2kbits/s speed=0.0172x elapsed=0:02:54.42    \nframe=   93 fps=0.5 q=39.0 size=     512KiB time=00:00:03.03 bitrate=1382.9kbits/s speed=0.0173x elapsed=0:02:54.94    \nframe=   93 fps=0.5 q=39.0 size=     512KiB time=00:00:03.03 bitrate=1382.9kbits/s speed=0.0173x elapsed=0:02:55.46    \nframe=   93 fps=0.5 q=39.0 size=     512KiB time=00:00:03.03 bitrate=1382.9kbits/s speed=0.0172x elapsed=0:02:55.98    \nframe=   94 fps=0.5 q=39.0 size=     512KiB time=00:00:03.06 bitrate=1367.8kbits/s speed=0.0174x elapsed=0:02:56.51    \nframe=   94 fps=0.5 q=39.0 size=     512KiB time=00:00:03.06 bitrate=1367.8kbits/s speed=0.0173x elapsed=0:02:57.03    \nframe=   94 fps=0.5 q=39.0 size=     512KiB time=00:00:03.06 bitrate=1367.8kbits/s speed=0.0173x elapsed=0:02:57.57    \nframe=   95 fps=0.5 q=34.9 size=     512KiB time=00:00:03.06 bitrate=1367.8kbits/s speed=0.0172x elapsed=0:02:58.09    \nframe=   95 fps=0.5 q=34.9 size=     512KiB time=00:00:03.10 bitrate=1353.1kbits/s speed=0.0174x elapsed=0:02:58.62    \nframe=   95 fps=0.5 q=34.9 size=     512KiB time=00:00:03.10 bitrate=1353.1kbits/s speed=0.0173x elapsed=0:02:59.14    \nframe=   96 fps=0.5 q=36.7 size=     512KiB time=00:00:03.13 bitrate=1338.7kbits/s speed=0.0174x elapsed=0:02:59.66    \nframe=   96 fps=0.5 q=36.7 size=     512KiB time=00:00:03.13 bitrate=1338.7kbits/s speed=0.0174x elapsed=0:03:00.19    \nframe=   96 fps=0.5 q=36.7 size=     512KiB time=00:00:03.13 bitrate=1338.7kbits/s speed=0.0173x elapsed=0:03:00.71    \nframe=   97 fps=0.5 q=38.8 size=     512KiB time=00:00:03.16 bitrate=1324.6kbits/s speed=0.0175x elapsed=0:03:01.25    \nframe=   98 fps=0.5 q=38.9 size=     512KiB time=00:00:03.20 bitrate=1310.8kbits/s speed=0.0176x elapsed=0:03:01.77    \nframe=   99 fps=0.5 q=39.3 size=     512KiB time=00:00:03.23 bitrate=1297.3kbits/s speed=0.0177x elapsed=0:03:02.30    \nframe=   99 fps=0.5 q=39.3 size=     512KiB time=00:00:03.23 bitrate=1297.3kbits/s speed=0.0177x elapsed=0:03:02.82    \nframe=   99 fps=0.5 q=39.3 size=     512KiB time=00:00:03.23 bitrate=1297.3kbits/s speed=0.0176x elapsed=0:03:03.33    \nframe=   99 fps=0.5 q=39.3 size=     512KiB time=00:00:03.23 bitrate=1297.3kbits/s speed=0.0176x elapsed=0:03:03.87    \nframe=   99 fps=0.5 q=39.3 size=     512KiB time=00:00:03.23 bitrate=1297.3kbits/s speed=0.0175x elapsed=0:03:04.39    \nframe=  100 fps=0.5 q=34.9 size=     512KiB time=00:00:03.26 bitrate=1284.1kbits/s speed=0.0177x elapsed=0:03:04.91    \nframe=  100 fps=0.5 q=34.9 size=     512KiB time=00:00:03.26 bitrate=1284.1kbits/s speed=0.0176x elapsed=0:03:05.45    \nframe=  100 fps=0.5 q=34.9 size=     512KiB time=00:00:03.26 bitrate=1284.1kbits/s speed=0.0176x elapsed=0:03:05.99    \nframe=  100 fps=0.5 q=34.9 size=     512KiB time=00:00:03.26 bitrate=1284.1kbits/s speed=0.0175x elapsed=0:03:06.52    \nframe=  101 fps=0.5 q=36.9 size=     512KiB time=00:00:03.30 bitrate=1271.1kbits/s speed=0.0176x elapsed=0:03:07.04    \nframe=  101 fps=0.5 q=36.9 size=     512KiB time=00:00:03.30 bitrate=1271.1kbits/s speed=0.0176x elapsed=0:03:07.57    \nframe=  102 fps=0.5 q=39.0 size=     512KiB time=00:00:03.33 bitrate=1258.4kbits/s speed=0.0177x elapsed=0:03:08.11    \nframe=  102 fps=0.5 q=39.0 size=     512KiB time=00:00:03.33 bitrate=1258.4kbits/s speed=0.0177x elapsed=0:03:08.64    \nframe=  103 fps=0.5 q=39.1 size=     512KiB time=00:00:03.36 bitrate=1245.9kbits/s speed=0.0178x elapsed=0:03:09.16    \nframe=  103 fps=0.5 q=39.1 size=     512KiB time=00:00:03.36 bitrate=1245.9kbits/s speed=0.0177x elapsed=0:03:09.70    \nframe=  103 fps=0.5 q=39.1 size=     512KiB time=00:00:03.36 bitrate=1245.9kbits/s speed=0.0177x elapsed=0:03:10.22    \nframe=  104 fps=0.5 q=34.8 size=     512KiB time=00:00:03.40 bitrate=1233.7kbits/s speed=0.0178x elapsed=0:03:10.75    \nframe=  104 fps=0.5 q=34.8 size=     512KiB time=00:00:03.40 bitrate=1233.7kbits/s speed=0.0178x elapsed=0:03:11.30    \nframe=  104 fps=0.5 q=34.8 size=     512KiB time=00:00:03.40 bitrate=1233.7kbits/s speed=0.0177x elapsed=0:03:11.87    \nframe=  105 fps=0.5 q=36.9 size=     512KiB time=00:00:03.43 bitrate=1221.7kbits/s speed=0.0178x elapsed=0:03:12.42    \nframe=  105 fps=0.5 q=36.9 size=     512KiB time=00:00:03.43 bitrate=1221.7kbits/s speed=0.0178x elapsed=0:03:12.92    \nframe=  105 fps=0.5 q=36.9 size=     512KiB time=00:00:03.43 bitrate=1221.7kbits/s speed=0.0177x elapsed=0:03:13.45    \nframe=  105 fps=0.5 q=36.9 size=     512KiB time=00:00:03.43 bitrate=1221.7kbits/s speed=0.0177x elapsed=0:03:14.00    \nframe=  105 fps=0.5 q=36.9 size=     512KiB time=00:00:03.43 bitrate=1221.7kbits/s speed=0.0176x elapsed=0:03:14.54    \nframe=  106 fps=0.5 q=38.8 size=     512KiB time=00:00:03.46 bitrate=1210.0kbits/s speed=0.0178x elapsed=0:03:15.06    \nframe=  107 fps=0.5 q=38.4 size=     512KiB time=00:00:03.50 bitrate=1198.5kbits/s speed=0.0179x elapsed=0:03:15.57    \nframe=  107 fps=0.5 q=38.4 size=     512KiB time=00:00:03.50 bitrate=1198.5kbits/s speed=0.0178x elapsed=0:03:16.10    \nframe=  107 fps=0.5 q=38.4 size=     512KiB time=00:00:03.50 bitrate=1198.5kbits/s speed=0.0178x elapsed=0:03:16.64    \nframe=  108 fps=0.5 q=34.7 size=     512KiB time=00:00:03.53 bitrate=1187.2kbits/s speed=0.0179x elapsed=0:03:17.16    \nframe=  109 fps=0.6 q=36.5 size=     512KiB time=00:00:03.53 bitrate=1187.2kbits/s speed=0.0179x elapsed=0:03:17.68    \nframe=  109 fps=0.5 q=36.5 size=     512KiB time=00:00:03.56 bitrate=1176.1kbits/s speed=0.018x elapsed=0:03:18.20    \nframe=  109 fps=0.5 q=36.5 size=     512KiB time=00:00:03.56 bitrate=1176.1kbits/s speed=0.0179x elapsed=0:03:18.73    \nframe=  110 fps=0.6 q=38.8 size=     512KiB time=00:00:03.60 bitrate=1165.2kbits/s speed=0.0181x elapsed=0:03:19.24    \nframe=  110 fps=0.6 q=38.8 size=     512KiB time=00:00:03.60 bitrate=1165.2kbits/s speed=0.018x elapsed=0:03:19.76    \nframe=  111 fps=0.6 q=38.8 size=     512KiB time=00:00:03.63 bitrate=1154.5kbits/s speed=0.0181x elapsed=0:03:20.28    \nframe=  111 fps=0.6 q=38.8 size=     512KiB time=00:00:03.63 bitrate=1154.5kbits/s speed=0.0181x elapsed=0:03:20.78    \nframe=  112 fps=0.6 q=34.9 size=     512KiB time=00:00:03.66 bitrate=1144.0kbits/s speed=0.0182x elapsed=0:03:21.31    \nframe=  112 fps=0.6 q=34.9 size=     512KiB time=00:00:03.66 bitrate=1144.0kbits/s speed=0.0182x elapsed=0:03:21.83    \nframe=  113 fps=0.6 q=36.7 size=     512KiB time=00:00:03.70 bitrate=1133.7kbits/s speed=0.0183x elapsed=0:03:22.37    \nframe=  113 fps=0.6 q=36.7 size=     512KiB time=00:00:03.70 bitrate=1133.7kbits/s speed=0.0182x elapsed=0:03:22.93    \nframe=  114 fps=0.6 q=39.3 size=     512KiB time=00:00:03.73 bitrate=1123.6kbits/s speed=0.0183x elapsed=0:03:23.47    \nframe=  115 fps=0.6 q=39.2 size=     512KiB time=00:00:03.76 bitrate=1113.6kbits/s speed=0.0185x elapsed=0:03:23.98    \nframe=  115 fps=0.6 q=39.2 size=     512KiB time=00:00:03.76 bitrate=1113.6kbits/s speed=0.0184x elapsed=0:03:24.52    \nframe=  115 fps=0.6 q=39.2 size=     512KiB time=00:00:03.76 bitrate=1113.6kbits/s speed=0.0184x elapsed=0:03:25.04    \nframe=  115 fps=0.6 q=39.2 size=     512KiB time=00:00:03.76 bitrate=1113.6kbits/s speed=0.0183x elapsed=0:03:25.56    \nframe=  116 fps=0.6 q=34.8 size=     512KiB time=00:00:03.80 bitrate=1103.9kbits/s speed=0.0184x elapsed=0:03:26.06    \nframe=  117 fps=0.6 q=37.0 size=     512KiB time=00:00:03.83 bitrate=1094.3kbits/s speed=0.0186x elapsed=0:03:26.59    \nframe=  117 fps=0.6 q=37.0 size=     512KiB time=00:00:03.83 bitrate=1094.3kbits/s speed=0.0185x elapsed=0:03:27.10    \nframe=  117 fps=0.6 q=37.0 size=     512KiB time=00:00:03.83 bitrate=1094.3kbits/s speed=0.0185x elapsed=0:03:27.63    \nframe=  118 fps=0.6 q=39.4 size=     512KiB time=00:00:03.86 bitrate=1084.8kbits/s speed=0.0186x elapsed=0:03:28.15    \nframe=  118 fps=0.6 q=39.4 size=     512KiB time=00:00:03.86 bitrate=1084.8kbits/s speed=0.0185x elapsed=0:03:28.71    \nframe=  119 fps=0.6 q=39.5 size=     512KiB time=00:00:03.90 bitrate=1075.6kbits/s speed=0.0186x elapsed=0:03:29.25    \nframe=  119 fps=0.6 q=39.5 size=     512KiB time=00:00:03.90 bitrate=1075.6kbits/s speed=0.0186x elapsed=0:03:29.84    \nframe=  119 fps=0.6 q=39.5 size=     512KiB time=00:00:03.90 bitrate=1075.6kbits/s speed=0.0185x elapsed=0:03:30.35    \nframe=  119 fps=0.6 q=39.5 size=     512KiB time=00:00:03.90 bitrate=1075.6kbits/s speed=0.0185x elapsed=0:03:30.87    \nframe=  119 fps=0.6 q=39.5 size=     512KiB time=00:00:03.90 bitrate=1075.6kbits/s speed=0.0184x elapsed=0:03:31.42    \nframe=  120 fps=0.6 q=35.3 size=     512KiB time=00:00:03.90 bitrate=1075.6kbits/s speed=0.0184x elapsed=0:03:31.93    \nframe=  120 fps=0.6 q=35.3 size=     512KiB time=00:00:03.93 bitrate=1066.4kbits/s speed=0.0185x elapsed=0:03:32.48    \nframe=  120 fps=0.6 q=35.3 size=     512KiB time=00:00:03.93 bitrate=1066.4kbits/s speed=0.0185x elapsed=0:03:33.02    \nframe=  121 fps=0.6 q=37.2 size=     512KiB time=00:00:03.96 bitrate=1057.5kbits/s speed=0.0186x elapsed=0:03:33.54    \nframe=  122 fps=0.6 q=39.3 size=     512KiB time=00:00:04.00 bitrate=1048.7kbits/s speed=0.0187x elapsed=0:03:34.09    \nframe=  122 fps=0.6 q=39.3 size=     512KiB time=00:00:04.00 bitrate=1048.7kbits/s speed=0.0186x elapsed=0:03:34.60    \nframe=  123 fps=0.6 q=39.1 size=     512KiB time=00:00:04.03 bitrate=1040.0kbits/s speed=0.0187x elapsed=0:03:35.12    \nframe=  124 fps=0.6 q=35.0 size=     512KiB time=00:00:04.06 bitrate=1031.5kbits/s speed=0.0189x elapsed=0:03:35.63    \nframe=  125 fps=0.6 q=36.9 size=     512KiB time=00:00:04.10 bitrate=1023.1kbits/s speed=0.019x elapsed=0:03:36.15    \nframe=  126 fps=0.6 q=39.2 size=     768KiB time=00:00:04.13 bitrate=1522.2kbits/s speed=0.0191x elapsed=0:03:36.67    \nframe=  126 fps=0.6 q=39.2 size=     768KiB time=00:00:04.13 bitrate=1522.2kbits/s speed=0.019x elapsed=0:03:37.17    \nframe=  127 fps=0.6 q=39.1 size=     768KiB time=00:00:04.16 bitrate=1510.0kbits/s speed=0.0191x elapsed=0:03:37.70    \nframe=  128 fps=0.6 q=35.1 size=     768KiB time=00:00:04.20 bitrate=1498.0kbits/s speed=0.0192x elapsed=0:03:38.21    \nframe=  129 fps=0.6 q=36.9 size=     768KiB time=00:00:04.23 bitrate=1486.3kbits/s speed=0.0194x elapsed=0:03:38.73    \nframe=  130 fps=0.6 q=39.2 size=     768KiB time=00:00:04.26 bitrate=1474.6kbits/s speed=0.0195x elapsed=0:03:39.24    \nframe=  131 fps=0.6 q=38.9 size=     768KiB time=00:00:04.30 bitrate=1463.2kbits/s speed=0.0196x elapsed=0:03:39.76    \nframe=  132 fps=0.6 q=36.0 size=     768KiB time=00:00:04.33 bitrate=1452.0kbits/s speed=0.0197x elapsed=0:03:40.28    \nframe=  133 fps=0.6 q=36.9 size=     768KiB time=00:00:04.36 bitrate=1440.9kbits/s speed=0.0198x elapsed=0:03:40.80    \nframe=  133 fps=0.6 q=36.9 size=     768KiB time=00:00:04.36 bitrate=1440.9kbits/s speed=0.0197x elapsed=0:03:41.30    \nframe=  134 fps=0.6 q=38.9 size=     768KiB time=00:00:04.40 bitrate=1430.0kbits/s speed=0.0198x elapsed=0:03:41.82    \nframe=  135 fps=0.6 q=38.8 size=     768KiB time=00:00:04.43 bitrate=1419.2kbits/s speed=0.0199x elapsed=0:03:42.34    \nframe=  136 fps=0.6 q=33.6 size=     768KiB time=00:00:04.46 bitrate=1408.6kbits/s speed=0.02x elapsed=0:03:42.86    \nframe=  136 fps=0.6 q=33.6 size=     768KiB time=00:00:04.46 bitrate=1408.6kbits/s speed=0.02x elapsed=0:03:43.38    \nframe=  137 fps=0.6 q=35.8 size=     768KiB time=00:00:04.50 bitrate=1398.2kbits/s speed=0.0201x elapsed=0:03:43.90    \nframe=  137 fps=0.6 q=35.8 size=     768KiB time=00:00:04.50 bitrate=1398.2kbits/s speed=0.0201x elapsed=0:03:44.41    \nframe=  139 fps=0.6 q=37.7 size=     768KiB time=00:00:04.56 bitrate=1377.8kbits/s speed=0.0203x elapsed=0:03:44.93    \nframe=  139 fps=0.6 q=37.7 size=     768KiB time=00:00:04.56 bitrate=1377.8kbits/s speed=0.0203x elapsed=0:03:45.45    \nframe=  140 fps=0.6 q=38.7 size=     768KiB time=00:00:04.60 bitrate=1367.8kbits/s speed=0.0204x elapsed=0:03:45.96    \nframe=  140 fps=0.6 q=38.7 size=     768KiB time=00:00:04.60 bitrate=1367.8kbits/s speed=0.0203x elapsed=0:03:46.48    \nframe=  140 fps=0.6 q=38.7 size=     768KiB time=00:00:04.60 bitrate=1367.8kbits/s speed=0.0203x elapsed=0:03:47.00    \nframe=  140 fps=0.6 q=38.7 size=     768KiB time=00:00:04.60 bitrate=1367.8kbits/s speed=0.0202x elapsed=0:03:47.51    \nframe=  140 fps=0.6 q=38.7 size=     768KiB time=00:00:04.60 bitrate=1367.8kbits/s speed=0.0202x elapsed=0:03:48.05    \nframe=  140 fps=0.6 q=38.7 size=     768KiB time=00:00:04.60 bitrate=1367.8kbits/s speed=0.0201x elapsed=0:03:48.57    \nframe=  140 fps=0.6 q=38.7 size=     768KiB time=00:00:04.60 bitrate=1367.8kbits/s speed=0.0201x elapsed=0:03:49.09    \nframe=  140 fps=0.6 q=38.7 size=     768KiB time=00:00:04.60 bitrate=1367.8kbits/s speed=0.02x elapsed=0:03:49.62    \nframe=  141 fps=0.6 q=38.6 size=     768KiB time=00:00:04.63 bitrate=1357.9kbits/s speed=0.0201x elapsed=0:03:50.15    \nframe=  141 fps=0.6 q=38.6 size=     768KiB time=00:00:04.63 bitrate=1357.9kbits/s speed=0.0201x elapsed=0:03:50.67    \nframe=  141 fps=0.6 q=38.6 size=     768KiB time=00:00:04.63 bitrate=1357.9kbits/s speed=0.02x elapsed=0:03:51.20    \nframe=  142 fps=0.6 q=34.9 size=     768KiB time=00:00:04.66 bitrate=1348.2kbits/s speed=0.0201x elapsed=0:03:51.72    \nframe=  142 fps=0.6 q=34.9 size=     768KiB time=00:00:04.66 bitrate=1348.2kbits/s speed=0.0201x elapsed=0:03:52.26    \nframe=  142 fps=0.6 q=34.9 size=     768KiB time=00:00:04.66 bitrate=1348.2kbits/s speed=0.02x elapsed=0:03:52.77    \nframe=  142 fps=0.6 q=34.9 size=     768KiB time=00:00:04.66 bitrate=1348.2kbits/s speed=0.02x elapsed=0:03:53.30    \nframe=  142 fps=0.6 q=34.9 size=     768KiB time=00:00:04.66 bitrate=1348.2kbits/s speed=0.02x elapsed=0:03:53.81    \nframe=  142 fps=0.6 q=34.9 size=     768KiB time=00:00:04.66 bitrate=1348.2kbits/s speed=0.0199x elapsed=0:03:54.33    \nframe=  142 fps=0.6 q=34.9 size=     768KiB time=00:00:04.66 bitrate=1348.2kbits/s speed=0.0199x elapsed=0:03:54.86    \nframe=  142 fps=0.6 q=34.9 size=     768KiB time=00:00:04.66 bitrate=1348.2kbits/s speed=0.0198x elapsed=0:03:55.39    \nframe=  143 fps=0.6 q=34.6 size=     768KiB time=00:00:04.70 bitrate=1338.7kbits/s speed=0.0199x elapsed=0:03:55.91    \nframe=  143 fps=0.6 q=34.6 size=     768KiB time=00:00:04.70 bitrate=1338.7kbits/s speed=0.0199x elapsed=0:03:56.43    \nframe=  143 fps=0.6 q=34.6 size=     768KiB time=00:00:04.70 bitrate=1338.7kbits/s speed=0.0198x elapsed=0:03:56.95    \nframe=  144 fps=0.6 q=35.1 size=     768KiB time=00:00:04.73 bitrate=1329.3kbits/s speed=0.0199x elapsed=0:03:57.47    \nframe=  144 fps=0.6 q=35.1 size=     768KiB time=00:00:04.73 bitrate=1329.3kbits/s speed=0.0199x elapsed=0:03:58.00    \nframe=  144 fps=0.6 q=35.1 size=     768KiB time=00:00:04.73 bitrate=1329.3kbits/s speed=0.0198x elapsed=0:03:58.52    \nframe=  144 fps=0.6 q=35.1 size=     768KiB time=00:00:04.73 bitrate=1329.3kbits/s speed=0.0198x elapsed=0:03:59.04    \nframe=  144 fps=0.6 q=35.1 size=     768KiB time=00:00:04.73 bitrate=1329.3kbits/s speed=0.0198x elapsed=0:03:59.57    \nframe=  144 fps=0.6 q=35.1 size=     768KiB time=00:00:04.73 bitrate=1329.3kbits/s speed=0.0197x elapsed=0:04:00.10    \nframe=  144 fps=0.6 q=35.1 size=     768KiB time=00:00:04.73 bitrate=1329.3kbits/s speed=0.0197x elapsed=0:04:00.63    \nframe=  144 fps=0.6 q=35.1 size=     768KiB time=00:00:04.73 bitrate=1329.3kbits/s speed=0.0196x elapsed=0:04:01.17    \nframe=  145 fps=0.6 q=36.3 size=     768KiB time=00:00:04.76 bitrate=1320.0kbits/s speed=0.0197x elapsed=0:04:01.68    \nframe=  145 fps=0.6 q=36.3 size=     768KiB time=00:00:04.76 bitrate=1320.0kbits/s speed=0.0197x elapsed=0:04:02.20    \nframe=  145 fps=0.6 q=36.3 size=     768KiB time=00:00:04.76 bitrate=1320.0kbits/s speed=0.0196x elapsed=0:04:02.71    \nframe=  145 fps=0.6 q=36.3 size=     768KiB time=00:00:04.76 bitrate=1320.0kbits/s speed=0.0196x elapsed=0:04:03.24    \nframe=  145 fps=0.6 q=36.3 size=     768KiB time=00:00:04.76 bitrate=1320.0kbits/s speed=0.0196x elapsed=0:04:03.76    \nframe=  146 fps=0.6 q=37.8 size=     768KiB time=00:00:04.80 bitrate=1310.8kbits/s speed=0.0197x elapsed=0:04:04.27    \nframe=  146 fps=0.6 q=37.8 size=     768KiB time=00:00:04.80 bitrate=1310.8kbits/s speed=0.0196x elapsed=0:04:04.79    \nframe=  146 fps=0.6 q=37.8 size=     768KiB time=00:00:04.80 bitrate=1310.8kbits/s speed=0.0196x elapsed=0:04:05.31    \nframe=  146 fps=0.6 q=37.8 size=     768KiB time=00:00:04.80 bitrate=1310.8kbits/s speed=0.0195x elapsed=0:04:05.82    \nframe=  147 fps=0.6 q=37.6 size=     768KiB time=00:00:04.83 bitrate=1301.8kbits/s speed=0.0196x elapsed=0:04:06.33    \nframe=  147 fps=0.6 q=37.6 size=     768KiB time=00:00:04.83 bitrate=1301.8kbits/s speed=0.0196x elapsed=0:04:06.87    \nframe=  147 fps=0.6 q=37.6 size=     768KiB time=00:00:04.83 bitrate=1301.8kbits/s speed=0.0195x elapsed=0:04:07.43    \nframe=  147 fps=0.6 q=37.6 size=     768KiB time=00:00:04.83 bitrate=1301.8kbits/s speed=0.0195x elapsed=0:04:07.94    \nframe=  148 fps=0.6 q=34.7 size=     768KiB time=00:00:04.86 bitrate=1292.8kbits/s speed=0.0196x elapsed=0:04:08.47    \nframe=  149 fps=0.6 q=35.4 size=     768KiB time=00:00:04.90 bitrate=1284.0kbits/s speed=0.0197x elapsed=0:04:08.98    \nframe=  149 fps=0.6 q=35.4 size=     768KiB time=00:00:04.90 bitrate=1284.0kbits/s speed=0.0196x elapsed=0:04:09.49    \nframe=  149 fps=0.6 q=35.4 size=     768KiB time=00:00:04.90 bitrate=1284.0kbits/s speed=0.0196x elapsed=0:04:10.03    \n[mp4 @ 000001b195e6aa40] Starting second pass: moving the moov atom to the beginning of the file\n[out#0/mp4 @ 000001b196833e00] video:898KiB audio:0KiB subtitle:0KiB other streams:0KiB global headers:2KiB muxing overhead: 0.567670%\nframe=  150 fps=0.6 q=37.3 Lsize=     903KiB time=00:00:04.93 bitrate=1499.6kbits/s speed=0.0197x elapsed=0:04:10.21    \nx265 [info]: frame I:      3, Avg QP:39.10  kb/s: 909.84  \nx265 [info]: frame P:     44, Avg QP:35.35  kb/s: 2272.74 \nx265 [info]: frame B:    103, Avg QP:38.24  kb/s: 1143.86 \nx265 [info]: Weighted P-Frames: Y:0.0% UV:0.0%\n\nencoded 150 frames in 249.66s (0.60 fps), 1470.32 kb/s, Avg QP:37.41\n",
  "seconds": 250.5313651561737,
  "probe_out": {}
}